<svg width="216" height="176" viewBox="0 0 216 176" fill="none" xmlns="http://www.w3.org/2000/svg">
<g style="mix-blend-mode:overlay">
<path d="M59.7783 154.909V21.0909H108.784C118.28 21.0909 126.143 22.6591 132.372 25.7955C138.601 28.8883 143.262 33.0919 146.355 38.4063C149.448 43.6771 150.994 49.6231 150.994 56.2444C150.994 61.8201 149.971 66.5247 147.923 70.358C145.876 74.1478 143.132 77.197 139.69 79.5057C136.293 81.7709 132.546 83.4262 128.452 84.4716V85.7784C132.895 85.9962 137.229 87.4337 141.454 90.0909C145.723 92.7046 149.252 96.429 152.04 101.264C154.828 106.099 156.222 111.98 156.222 118.906C156.222 125.745 154.61 131.887 151.386 137.332C148.206 142.734 143.284 147.025 136.619 150.205C129.954 153.341 121.438 154.909 111.071 154.909H59.7783ZM79.9687 137.594H109.111C118.781 137.594 125.707 135.721 129.889 131.974C134.071 128.228 136.162 123.545 136.162 117.926C136.162 113.701 135.095 109.824 132.96 106.295C130.826 102.767 127.776 99.9574 123.812 97.8665C119.892 95.7756 115.231 94.7301 109.829 94.7301H79.9687V137.594ZM79.9687 78.983H107.02C111.55 78.983 115.623 78.1118 119.239 76.3694C122.898 74.6269 125.794 72.1875 127.929 69.0512C130.107 65.8712 131.196 62.125 131.196 57.8125C131.196 52.2803 129.257 47.6411 125.381 43.8949C121.504 40.1487 115.558 38.2756 107.543 38.2756H79.9687V78.983Z" fill="white"/>
</g>
</svg>
