<svg width="216" height="176" viewBox="0 0 216 176" fill="none" xmlns="http://www.w3.org/2000/svg">
<g style="mix-blend-mode:overlay">
<path d="M165.729 64.6079H145.343C144.558 60.2519 143.099 56.4185 140.965 53.1079C138.83 49.7973 136.217 46.9877 133.124 44.679C130.031 42.3703 126.568 40.6278 122.735 39.4517C118.945 38.2756 114.915 37.6875 110.646 37.6875C102.936 37.6875 96.0319 39.6259 89.9334 43.5028C83.8785 47.3797 79.0868 53.0644 75.5584 60.5568C72.0736 68.0492 70.3311 77.197 70.3311 88C70.3311 98.8901 72.0736 108.081 75.5584 115.574C79.0868 123.066 83.9003 128.729 89.9988 132.562C96.0972 136.396 102.958 138.312 110.581 138.312C114.807 138.312 118.814 137.746 122.604 136.614C126.437 135.437 129.9 133.717 132.993 131.452C136.086 129.187 138.7 126.42 140.834 123.153C143.012 119.843 144.515 116.053 145.343 111.784L165.729 111.849C164.64 118.427 162.527 124.482 159.391 130.014C156.298 135.503 152.312 140.251 147.433 144.259C142.598 148.223 137.066 151.294 130.837 153.472C124.608 155.65 117.812 156.739 110.45 156.739C98.8633 156.739 88.5395 153.994 79.4789 148.506C70.4183 142.973 63.2743 135.067 58.0471 124.787C52.8633 114.507 50.2715 102.244 50.2715 88C50.2715 73.7121 52.8851 61.4498 58.1124 51.2131C63.3397 40.9328 70.4836 33.0483 79.5442 27.5596C88.6048 22.0275 98.9069 19.2614 110.45 19.2614C117.551 19.2614 124.172 20.285 130.314 22.3324C136.5 24.3362 142.054 27.2983 146.976 31.2187C151.898 35.0956 155.971 39.8437 159.195 45.4631C162.418 51.0388 164.596 57.4204 165.729 64.6079Z" fill="white"/>
</g>
</svg>
