<svg width="216" height="176" viewBox="0 0 216 176" fill="none" xmlns="http://www.w3.org/2000/svg">
<g style="mix-blend-mode:overlay">
<path d="M97.4802 154.909H54.1592V21.0909H98.8524C111.964 21.0909 123.225 23.7699 132.634 29.1279C142.043 34.4423 149.252 42.0872 154.261 52.0625C159.314 61.9944 161.841 73.9082 161.841 87.804C161.841 101.743 159.293 113.723 154.196 123.742C149.143 133.76 141.825 141.471 132.242 146.872C122.658 152.23 111.071 154.909 97.4802 154.909ZM74.3495 137.267H96.3694C106.563 137.267 115.035 135.35 121.787 131.517C128.539 127.64 133.592 122.043 136.946 114.724C140.3 107.363 141.977 98.3892 141.977 87.804C141.977 77.3059 140.3 68.3978 136.946 61.0796C133.636 53.7614 128.691 48.2074 122.114 44.4176C115.536 40.6279 107.368 38.733 97.6109 38.733H74.3495V137.267Z" fill="white"/>
</g>
</svg>
